<svg xmlns="http://www.w3.org/2000/svg" width="288" height="171.52" viewBox="0 0 76.2 45.381" version="1.1" id="svg8"><g id="layer1" transform="translate(-2.065 -1.694)"><path d="M2.065 41.277V35.48l2.385-.022 2.386-.023 6.628-11.007c3.645-6.053 6.63-11.035 6.631-11.07.002-.035-.796-.063-1.774-.063h-1.778v-11.6h22.183v11.6h-3.638l2.517 4.188c1.385 2.304 2.537 4.188 2.56 4.188.023 0 1.175-1.884 2.56-4.188l2.517-4.188h-3.638v-11.6h22.183v11.6h-1.778c-.978 0-1.776.028-1.774.063.002.035 2.986 5.017 6.632 11.07l6.628 11.007 2.385.023 2.385.022v11.596H55.574V35.479l2.025-.022 2.025-.023-3.442-5.733c-1.893-3.153-3.47-5.704-3.506-5.669-.08.08-2.605 4.244-2.605 4.296 0 .02.571.036 1.27.036h1.27v11.6H27.719v-11.6h1.27c.698 0 1.27-.018 1.27-.04 0-.063-2.463-4.134-2.573-4.253-.07-.077-.94 1.307-3.537 5.63l-3.443 5.733 2.025.023 2.025.022v11.597H2.065z" id="path3737" fill="#fc3" fill-opacity="1" stroke-width=".085"/></g></svg>